<svg width="56" height="56" viewBox="0 0 56 56" fill="none" xmlns="http://www.w3.org/2000/svg">
<rect width="56" height="56" rx="8" fill="white"/>
<path d="M34.333 26.6667C34.333 27.2189 33.8853 27.6667 33.333 27.6667H22.6663C22.1141 27.6667 21.6663 27.2189 21.6663 26.6667C21.6663 26.1144 22.1141 25.6667 22.6663 25.6667H33.333C33.8853 25.6667 34.333 26.1144 34.333 26.6667Z" fill="url(#paint0_linear)"/>
<path fill-rule="evenodd" clip-rule="evenodd" d="M17.8471 22.8622L19.4321 18.5321C19.8315 17.4409 20.8003 16.6589 21.9513 16.4987C25.9642 15.9403 30.0352 15.9403 34.0482 16.4987C35.1991 16.6589 36.1679 17.4409 36.5674 18.5321L38.1524 22.8627C38.4489 23.3252 38.6531 23.8539 38.7388 24.4239L38.8747 25.3276C39.4078 28.8725 39.3579 32.4806 38.7272 36.0094C38.4475 37.5738 37.1628 38.7621 35.5813 38.919L33.9407 39.0819C29.9897 39.474 26.0096 39.474 22.0586 39.0819L20.4179 38.919C18.8365 38.7621 17.5518 37.5738 17.2721 36.0094C16.6414 32.4806 16.5915 28.8725 17.1246 25.3276L17.2605 24.4239C17.3462 23.8537 17.5505 23.3249 17.8471 22.8622ZM22.2269 18.4796C26.057 17.9467 29.9424 17.9467 33.7725 18.4796C34.1913 18.5379 34.5439 18.8225 34.6892 19.2196L35.3642 21.0636C35.3037 21.0548 35.2428 21.0473 35.1815 21.0412L33.8772 20.9118C29.9684 20.5238 26.0308 20.5238 22.1221 20.9118L20.8178 21.0412C20.7565 21.0473 20.6957 21.0548 20.6353 21.0635L21.3102 19.2196C21.4556 18.8225 21.8081 18.5379 22.2269 18.4796ZM19.5806 23.868L19.6054 23.8771L19.6363 23.7927C19.964 23.3716 20.4561 23.0869 21.0153 23.0314L22.3196 22.902C26.097 22.5271 29.9023 22.5271 33.6797 22.902L34.9839 23.0314C35.5433 23.087 36.0355 23.3717 36.3632 23.793L36.394 23.8771L36.4187 23.868C36.5936 24.1158 36.7136 24.4059 36.761 24.7213L36.8969 25.625C37.3976 28.9544 37.3508 32.3432 36.7584 35.6574C36.6362 36.341 36.0748 36.8602 35.3838 36.9288L33.7432 37.0917C29.9235 37.4708 26.0757 37.4708 22.2561 37.0917L20.6155 36.9288C19.9245 36.8602 19.3631 36.341 19.2409 35.6574C18.6485 32.3432 18.6017 28.9544 19.1024 25.625L19.2383 24.7213C19.2857 24.4059 19.4057 24.1158 19.5806 23.868Z" fill="url(#paint1_linear)"/>
<defs>
<linearGradient id="paint0_linear" x1="27.9996" y1="16.0799" x2="27.9996" y2="39.376" gradientUnits="userSpaceOnUse">
<stop stop-color="#FFA900"/>
<stop offset="1" stop-color="#FFC000"/>
</linearGradient>
<linearGradient id="paint1_linear" x1="27.9996" y1="16.0799" x2="27.9996" y2="39.376" gradientUnits="userSpaceOnUse">
<stop stop-color="#FFA900"/>
<stop offset="1" stop-color="#FFC000"/>
</linearGradient>
</defs>
</svg>
