<svg width="32" height="32" viewBox="0 0 32 32" fill="none" xmlns="http://www.w3.org/2000/svg">
<g clip-path="url(#clip0)">
<path d="M31.9688 9.40809C31.8938 7.7078 31.6188 6.53888 31.225 5.52598C30.8186 4.45082 30.1935 3.48823 29.3745 2.68802C28.5743 1.87537 27.6054 1.2439 26.5426 0.843915C25.5239 0.450039 24.3611 0.175083 22.6608 0.100117C20.9478 0.0188025 20.404 0 16.0594 0C11.7148 0 11.171 0.0188025 9.46436 0.0937683C7.76408 0.168734 6.59515 0.443934 5.5825 0.837566C4.50709 1.2439 3.5445 1.86902 2.7443 2.68802C1.93164 3.48823 1.30041 4.45717 0.900189 5.51988C0.506313 6.53888 0.231357 7.70146 0.156392 9.40174C0.0750769 11.1147 0.0562744 11.6585 0.0562744 16.0031C0.0562744 20.3477 0.0750769 20.8915 0.150043 22.5982C0.225009 24.2984 0.500209 25.4674 0.894084 26.4803C1.30041 27.5554 1.93164 28.518 2.7443 29.3182C3.5445 30.1309 4.51344 30.7624 5.57615 31.1623C6.59515 31.5562 7.75773 31.8312 9.45826 31.9061C11.1646 31.9813 11.7087 31.9999 16.0533 31.9999C20.3979 31.9999 20.9417 31.9813 22.6483 31.9061C24.3486 31.8312 25.5175 31.5562 26.5302 31.1623C28.6808 30.3309 30.381 28.6306 31.2125 26.4803C31.6061 25.4613 31.8813 24.2984 31.9563 22.5982C32.0313 20.8915 32.0501 20.3477 32.0501 16.0031C32.0501 11.6585 32.0437 11.1147 31.9688 9.40809ZM29.0871 22.4731C29.0182 24.0359 28.7557 24.8799 28.5369 25.4425C27.9992 26.8365 26.8928 27.943 25.4987 28.4807C24.9361 28.6995 24.0861 28.962 22.5294 29.0306C20.8416 29.1058 20.3354 29.1243 16.0657 29.1243C11.7961 29.1243 11.2836 29.1058 9.60184 29.0306C8.03903 28.962 7.19512 28.6995 6.63251 28.4807C5.93877 28.2243 5.3073 27.8179 4.79475 27.2866C4.26339 26.7677 3.85706 26.1426 3.60067 25.4488C3.38187 24.8862 3.11937 24.0359 3.05076 22.4795C2.97555 20.7917 2.95699 20.2852 2.95699 16.0156C2.95699 11.7459 2.97555 11.2334 3.05076 9.55192C3.11937 7.98911 3.38187 7.14519 3.60067 6.58258C3.85706 5.8886 4.26339 5.25737 4.8011 4.74458C5.31975 4.21323 5.94487 3.8069 6.63886 3.55074C7.20147 3.33195 8.05173 3.06945 9.60819 3.00059C11.296 2.92562 11.8025 2.90682 16.0718 2.90682C20.3478 2.90682 20.854 2.92562 22.5358 3.00059C24.0986 3.06945 24.9425 3.33195 25.5051 3.55074C26.1988 3.8069 26.8303 4.21323 27.3428 4.74458C27.8742 5.26348 28.2805 5.8886 28.5369 6.58258C28.7557 7.14519 29.0182 7.99521 29.0871 9.55192C29.1621 11.2397 29.1809 11.7459 29.1809 16.0156C29.1809 20.2852 29.1621 20.7853 29.0871 22.4731Z" fill="#FFC000"/>
<path d="M16.0592 7.78296C11.521 7.78296 7.83887 11.4648 7.83887 16.0033C7.83887 20.5418 11.521 24.2237 16.0592 24.2237C20.5977 24.2237 24.2796 20.5418 24.2796 16.0033C24.2796 11.4648 20.5977 7.78296 16.0592 7.78296ZM16.0592 21.3357C13.115 21.3357 10.7269 18.9477 10.7269 16.0033C10.7269 13.0589 13.115 10.671 16.0592 10.671C19.0036 10.671 21.3916 13.0589 21.3916 16.0033C21.3916 18.9477 19.0036 21.3357 16.0592 21.3357Z" fill="#FFC000"/>
<path d="M26.5241 7.45789C26.5241 8.51767 25.6648 9.37697 24.6047 9.37697C23.545 9.37697 22.6857 8.51767 22.6857 7.45789C22.6857 6.39787 23.545 5.53882 24.6047 5.53882C25.6648 5.53882 26.5241 6.39787 26.5241 7.45789Z" fill="#FFC000"/>
</g>
<defs>
<clipPath id="clip0">
<rect width="32" height="32" fill="white"/>
</clipPath>
</defs>
</svg>
