<svg width="14" height="13" viewBox="0 0 14 13" fill="none" xmlns="http://www.w3.org/2000/svg">
<path d="M7.01718 0C3.14954 0 0 2.92484 0 6.53232C0 10.1071 3.14954 13 7.01718 13C10.8848 13 14 10.123 14 6.53232C14 2.92484 10.7449 0 7.01718 0ZM7.01718 12.1378C3.6926 12.1378 0.962616 9.61984 0.962616 6.53245C0.962616 3.42925 3.69274 0.860994 7.01718 0.860994C10.3252 0.860994 13.0374 3.44507 13.0374 6.53245C13.0374 9.58752 10.3253 12.1378 7.01718 12.1378Z" fill="black" fill-opacity="0.3"/>
<path d="M9.71266 3.08778C9.27607 3.08778 9.10029 3.26655 8.90806 3.62423L7.01763 7.28025H7.00045L5.09284 3.6241C4.90002 3.26628 4.72541 3.08765 4.28779 3.08765C3.71037 3.08765 3.5177 3.42883 3.5177 3.75364V9.42456C3.5177 9.7341 3.78071 9.91205 4.09512 9.91205C4.37502 9.91205 4.69002 9.73396 4.69002 9.42456V5.20004H4.70779L6.4402 8.48243C6.56283 8.70988 6.72069 8.84052 7.00059 8.84052C7.27976 8.84052 7.43807 8.70988 7.56054 8.48243L9.29266 5.20004H9.31043V9.42456C9.31043 9.7341 9.62513 9.91205 9.90518 9.91205C10.2205 9.91205 10.4826 9.73396 10.4826 9.42456V3.75378C10.4825 3.42896 10.2905 3.08778 9.71266 3.08778Z" fill="black" fill-opacity="0.3"/>
</svg>
