<svg width="16" height="16" viewBox="0 0 16 16" fill="none" xmlns="http://www.w3.org/2000/svg">
<path d="M15.8488 15.1295L11.7179 11.0646C12.7996 9.8893 13.4643 8.33495 13.4643 6.62455C13.4638 2.96568 10.4501 0 6.73219 0C3.01431 0 0.000610352 2.96568 0.000610352 6.62455C0.000610352 10.2834 3.01431 13.2491 6.73219 13.2491C8.33856 13.2491 9.8119 12.6935 10.9692 11.7697L15.1162 15.8507C15.3182 16.0498 15.6463 16.0498 15.8483 15.8507C16.0509 15.6517 16.0509 15.3286 15.8488 15.1295ZM6.73219 12.2299C3.58646 12.2299 1.03636 9.72029 1.03636 6.62455C1.03636 3.52881 3.58646 1.01923 6.73219 1.01923C9.87794 1.01923 12.428 3.52881 12.428 6.62455C12.428 9.72029 9.87794 12.2299 6.73219 12.2299Z" fill="#B3B3B3"/>
</svg>
