<svg width="56" height="56" viewBox="0 0 56 56" fill="none" xmlns="http://www.w3.org/2000/svg">
<rect width="56" height="56" rx="8" fill="white"/>
<path fill-rule="evenodd" clip-rule="evenodd" d="M28.8601 19.0183C28.3312 18.6998 27.6695 18.6998 27.1406 19.0183L26.4522 19.4328C24.6105 20.5418 22.543 21.2223 20.4028 21.4239L19.9691 21.4648C19.7978 21.4809 19.667 21.6247 19.667 21.7966V23.9885C19.667 27.3319 21.0244 30.532 23.4282 32.8558L27.7686 37.0518C27.8978 37.1767 28.1028 37.1767 28.232 37.0518L32.5725 32.8558C34.9763 30.532 36.3337 27.3319 36.3337 23.9885V21.7966C36.3337 21.6247 36.2028 21.4809 36.0316 21.4648L35.5979 21.4239C33.4576 21.2223 31.3901 20.5418 29.5485 19.4328L28.8601 19.0183ZM26.1089 17.305C27.2725 16.6043 28.7281 16.6043 29.8918 17.305L30.5802 17.7195C32.1648 18.6737 33.9439 19.2592 35.7855 19.4327L36.2192 19.4736C37.4178 19.5865 38.3337 20.5928 38.3337 21.7966V23.9885C38.3337 27.874 36.7562 31.5931 33.9626 34.2937L29.6221 38.4898C28.7177 39.3641 27.283 39.3641 26.3786 38.4898L22.0381 34.2937C19.2445 31.5931 17.667 27.874 17.667 23.9885V21.7966C17.667 20.5928 18.5829 19.5865 19.7815 19.4736L20.2152 19.4327C22.0568 19.2592 23.8358 18.6737 25.4205 17.7195L26.1089 17.305Z" fill="url(#paint0_linear)"/>
<defs>
<linearGradient id="paint0_linear" x1="28.0003" y1="16.7794" x2="28.0003" y2="39.1455" gradientUnits="userSpaceOnUse">
<stop stop-color="#FFA900"/>
<stop offset="1" stop-color="#FFC000"/>
</linearGradient>
</defs>
</svg>
