<svg width="56" height="56" viewBox="0 0 56 56" fill="none" xmlns="http://www.w3.org/2000/svg">
<rect width="56" height="56" rx="8" fill="white"/>
<path fill-rule="evenodd" clip-rule="evenodd" d="M25.9821 17.4856C26.8813 15.9359 29.1192 15.9359 30.0184 17.4856L32.7722 22.2314C33.0261 22.6688 33.4648 22.9673 33.9649 23.0429L38.5378 23.7335C40.5311 24.0346 41.2303 26.5514 39.6779 27.8375L36.346 30.5979C35.8784 30.9854 35.6585 31.5965 35.7721 32.1931L36.7054 37.0944C37.071 39.0143 35.0555 40.5061 33.3261 39.5955L28.7768 37.2001C28.2907 36.9441 27.7098 36.9441 27.2238 37.2001L22.6744 39.5955C20.945 40.5061 18.9295 39.0143 19.2951 37.0944L20.2284 32.1931C20.342 31.5965 20.1221 30.9854 19.6545 30.5979L16.3226 27.8375C14.7702 26.5514 15.4694 24.0346 17.4628 23.7335L22.0356 23.0429C22.5357 22.9673 22.9744 22.6688 23.2283 22.2314L25.9821 17.4856ZM28.2886 18.4893C28.1601 18.2679 27.8404 18.268 27.712 18.4893L24.9581 23.2351C24.3997 24.1975 23.4345 24.8543 22.3343 25.0204L17.7615 25.7111C17.4767 25.7541 17.3768 26.1137 17.5986 26.2974L20.9304 29.0578C21.9593 29.9102 22.4431 31.2547 22.1931 32.5672L21.2598 37.4685C21.2076 37.7428 21.4955 37.9559 21.7426 37.8258L26.292 35.4304C27.3612 34.8674 28.6393 34.8674 29.7086 35.4304L34.258 37.8258C34.505 37.9559 34.7929 37.7428 34.7407 37.4685L33.8074 32.5672C33.5575 31.2547 34.0412 29.9102 35.0701 29.0578L38.4019 26.2974C38.6237 26.1137 38.5238 25.7541 38.2391 25.7111L33.6662 25.0204C32.566 24.8543 31.6008 24.1975 31.0424 23.2351L28.2886 18.4893Z" fill="url(#paint0_linear)"/>
<defs>
<linearGradient id="paint0_linear" x1="28.0003" y1="16.3233" x2="28.0003" y2="39.8697" gradientUnits="userSpaceOnUse">
<stop stop-color="#FFA900"/>
<stop offset="1" stop-color="#FFC000"/>
</linearGradient>
</defs>
</svg>
